<?xml version="1.0" standalone="no"?>
<!DOCTYPE svg PUBLIC "-//W3C//DTD SVG 20010904//EN"
 "http://www.w3.org/TR/2001/REC-SVG-20010904/DTD/svg10.dtd">
<svg version="1.0" xmlns="http://www.w3.org/2000/svg"
 width="200.000000pt" height="200.000000pt" viewBox="0 0 200.000000 200.000000"
 preserveAspectRatio="xMidYMid meet">

<g transform="translate(0.000000,200.000000) scale(0.100000,-0.100000)"
fill="#000000" stroke="none">
<path d="M835 1790 c-163 -35 -329 -134 -434 -259 -179 -216 -233 -495 -145
-760 82 -249 297 -445 558 -511 107 -27 265 -27 372 0 261 66 476 262 558 511
122 368 -37 766 -376 944 -88 47 -137 63 -233 81 -105 18 -190 17 -300 -6z
m408 -398 c17 -28 17 -37 7 -63 -18 -43 -37 -49 -145 -49 -102 0 -145 -13
-165 -49 -6 -12 -10 -119 -11 -273 0 -273 -6 -313 -49 -335 -40 -20 -69 -15
-101 17 l-30 30 3 292 c3 281 4 295 25 335 26 48 86 102 134 119 22 8 83 12
173 11 l140 -2 19 -33z m-92 -282 c44 -24 63 -106 33 -148 -41 -60 -123 -65
-168 -11 -59 69 -15 169 74 169 23 0 50 -5 61 -10z"/>
</g>
</svg>
