 <svg  version="1.0" xmlns="http://www.w3.org/2000/svg"  width="200.000000pt" height="200.000000pt" viewBox="0 0 200.000000 200.000000"  preserveAspectRatio="xMidYMid meet">  <g transform="translate(0.000000,200.000000) scale(0.100000,-0.100000)" fill="#c51616" stroke="none"> <path d="M895 1994 c-159 -24 -285 -67 -405 -138 -242 -143 -416 -391 -471 -671 -18 -90 -18 -280 0 -370 59 -301 253 -561 523 -700 47 -25 91 -45 96 -45 6 0 21 21 33 48 28 58 110 141 166 168 l42 21 -41 19 c-63 28 -134 104 -171 181 -27 60 -31 78 -31 154 0 80 3 92 37 162 21 42 54 90 76 110 l38 35 -37 71 c-36 69 -85 137 -152 214 -32 36 -34 37 -66 26 -26 -9 -43 -9 -72 0 -121 36 -121 206 -1 242 84 25 171 -53 157 -140 -5 -34 -2 -41 40 -82 55 -53 120 -142 163 -223 17 -33 33 -62 35 -64 3 -2 37 4 76 14 71 17 121 14 215 -12 17 -4 24 3 39 33 27 57 120 191 170 246 40 44 43 52 39 88 -18 134 157 202 227 87 58 -96 -27 -219 -132 -191 -37 10 -39 10 -81 -41 -71 -84 -98 -123 -137 -198 l-38 -72 43 -42 c115 -111 143 -291 68 -437 -31 -62 -106 -136 -162 -162 l-43 -19 48 -24 c60 -31 134 -106 159 -163 10 -24 20 -45 21 -47 4 -6 151 72 209 111 77 53 189 165 242 242 160 236 216 513 158 783 -82 385 -382 684 -770 768 -71 16 -256 26 -310 18z"/> </g> </svg> 