<?xml version="1.0" standalone="no"?>
<!DOCTYPE svg PUBLIC "-//W3C//DTD SVG 20010904//EN"
 "http://www.w3.org/TR/2001/REC-SVG-20010904/DTD/svg10.dtd">
<svg version="1.0" xmlns="http://www.w3.org/2000/svg"
 width="600.000000pt" height="600.000000pt" viewBox="0 0 600.000000 600.000000"
 preserveAspectRatio="xMidYMid meet">
<metadata>
Created by potrace 1.10, written by Peter Selinger 2001-2011
</metadata>
<g transform="translate(0.000000,600.000000) scale(0.100000,-0.100000)"
fill="#e85d11" stroke="none">
<path d="M2830 4919 c-74 -3 -155 -10 -180 -17 -25 -6 -85 -20 -135 -31 -49
-12 -115 -30 -145 -42 -30 -11 -67 -24 -81 -29 -14 -4 -34 -12 -45 -18 -10 -5
-50 -24 -89 -42 -75 -34 -223 -120 -266 -154 -15 -12 -56 -41 -90 -66 -83 -58
-270 -245 -336 -335 -29 -38 -60 -81 -71 -95 -23 -32 -142 -229 -142 -237 0
-6 -34 -81 -52 -117 -6 -11 -14 -31 -18 -45 -5 -14 -18 -51 -30 -81 -12 -30
-26 -73 -30 -95 -12 -62 -31 -137 -43 -170 -6 -18 -12 -141 -15 -315 -4 -296
1 -349 45 -515 24 -88 74 -238 92 -273 20 -38 71 -152 71 -157 0 -3 20 -37 45
-75 25 -38 45 -72 45 -75 0 -6 97 -136 150 -200 26 -32 177 -182 226 -225 119
-105 300 -220 449 -285 22 -10 48 -22 57 -26 22 -11 151 -57 198 -70 19 -6 49
-15 67 -20 17 -5 56 -14 85 -19 29 -6 76 -15 103 -20 66 -14 536 -14 600 0 28
6 70 15 95 20 73 14 161 38 220 61 30 11 67 24 81 29 14 4 34 12 45 18 10 5
66 33 124 61 202 100 343 202 510 370 109 110 200 225 266 334 71 119 85 144
95 167 5 14 16 39 23 55 24 52 44 99 61 145 9 25 23 60 31 78 8 18 14 43 14
57 0 13 5 36 11 52 6 15 15 48 19 73 5 25 14 68 20 95 6 29 11 160 11 307 0
256 -4 298 -43 443 -6 22 -14 56 -19 75 -8 36 -63 199 -78 228 -5 9 -32 64
-60 122 -103 208 -192 332 -372 511 -94 94 -239 209 -332 265 -27 16 -61 37
-75 46 -29 18 -150 78 -159 78 -3 0 -19 6 -36 14 -119 54 -255 99 -357 117
-25 4 -63 12 -85 17 -51 13 -300 19 -475 11z m317 -184 c189 -29 288 -47 308
-56 32 -14 146 -49 160 -49 7 0 18 -7 25 -15 7 -8 19 -15 28 -15 8 0 43 -13
76 -29 34 -16 68 -31 76 -35 8 -3 29 -15 45 -26 17 -11 37 -23 45 -27 83 -39
340 -267 443 -393 102 -125 196 -285 267 -455 46 -110 87 -283 114 -485 20
-143 20 -177 1 -320 -36 -267 -77 -413 -169 -600 -104 -211 -159 -289 -326
-463 -86 -90 -307 -267 -334 -267 -7 0 -16 -7 -20 -15 -3 -8 -14 -15 -25 -15
-11 0 -22 -4 -25 -9 -7 -11 -134 -72 -206 -99 -173 -65 -231 -80 -455 -114
-102 -16 -268 -16 -370 0 -144 22 -260 43 -280 52 -11 4 -51 18 -90 30 -38 12
-83 27 -100 35 -133 58 -181 82 -188 93 -4 6 -16 12 -26 12 -10 0 -24 7 -31
15 -7 8 -16 15 -21 15 -40 0 -377 298 -457 405 -115 153 -202 299 -202 340 0
7 -7 18 -15 25 -8 7 -15 19 -15 27 0 8 -6 27 -14 41 -22 42 -67 182 -76 239
-4 28 -11 56 -14 61 -11 18 -41 278 -41 357 0 127 40 398 70 470 7 17 18 53
25 80 14 54 34 104 81 200 16 33 29 63 29 68 0 4 13 26 30 49 16 22 30 45 30
50 0 4 19 35 43 67 23 33 49 69 57 82 8 12 65 74 125 137 108 112 278 251 343
278 17 8 32 19 32 24 0 6 9 10 19 10 11 0 22 4 25 9 5 8 106 58 191 96 110 49
307 98 442 110 43 4 87 11 98 16 33 13 167 10 272 -6z"/>
<path d="M3605 3908 c-38 -13 -86 -35 -196 -87 -47 -23 -90 -41 -96 -41 -6 0
-16 -7 -23 -15 -7 -8 -18 -15 -25 -15 -7 0 -68 -26 -136 -58 -68 -33 -131 -62
-139 -66 -63 -27 -120 -70 -150 -112 -31 -43 -35 -56 -38 -125 -3 -62 0 -83
17 -117 25 -48 431 -458 464 -468 12 -3 28 -11 36 -18 20 -16 126 -7 176 14
38 16 125 101 125 122 0 5 16 40 35 79 19 39 35 79 35 90 0 10 4 20 9 23 4 3
16 27 26 53 9 26 28 71 41 98 13 28 37 84 55 125 17 41 41 95 53 120 40 82 51
150 35 221 -11 51 -22 70 -60 109 -67 69 -163 95 -244 68z"/>
<path d="M2590 3225 c-14 -8 -32 -14 -41 -15 -16 0 -46 -22 -86 -61 -22 -22
-83 -140 -83 -160 0 -6 -8 -26 -19 -43 -10 -17 -22 -42 -26 -56 -8 -29 -34
-88 -75 -175 -15 -33 -37 -80 -48 -105 -11 -25 -32 -71 -47 -103 -15 -32 -29
-84 -32 -115 -8 -86 10 -135 70 -196 45 -46 60 -55 113 -66 75 -15 136 -4 233
41 36 17 86 40 111 51 25 11 68 30 95 42 28 13 70 31 95 41 25 10 86 38 137
62 50 24 96 43 103 43 6 0 32 17 57 37 57 47 93 122 93 194 0 94 -28 133 -252
354 -177 174 -210 203 -261 223 -66 25 -102 27 -137 7z"/>
</g>
</svg>
